<svg width="22" height="22" viewBox="0 0 17 17" fill="none" xmlns="http://www.w3.org/2000/svg">
    <path fill-rule="evenodd" clip-rule="evenodd" d="M2.35385 0H2.28846C1.989 0 1.73138 9.74232e-09 1.50385 0.0536113C1.1516 0.137774 0.829535 0.317805 0.573332 0.573757C0.31713 0.829709 0.136795 1.15159 0.0523076 1.50373C-4.87153e-08 1.73125 0 1.98754 0 2.28829V5.55726C0 5.8567 9.74307e-09 6.1143 0.0536154 6.34182C0.137785 6.69404 0.31783 7.01608 0.573801 7.27226C0.829773 7.52844 1.15168 7.70877 1.50385 7.79325C1.73138 7.84555 1.98769 7.84555 2.28846 7.84555H5.55769C5.85715 7.84555 6.11477 7.84555 6.34231 7.79194C6.69455 7.70778 7.01662 7.52774 7.27282 7.27179C7.52902 7.01584 7.70936 6.69396 7.79385 6.34182C7.84615 6.1143 7.84615 5.85801 7.84615 5.55726V2.28829C7.84615 1.98885 7.84615 1.73125 7.79254 1.50373C7.70837 1.15151 7.52832 0.829471 7.27235 0.573288C7.01638 0.317105 6.69448 0.136784 6.34231 0.0523036C6.11477 -4.87116e-08 5.85846 0 5.55769 0H2.35385ZM1.80854 1.3259C1.86477 1.31282 1.95238 1.30759 2.35385 1.30759H5.49231C5.89508 1.30759 5.98138 1.31151 6.03762 1.3259C6.15509 1.35399 6.26248 1.41406 6.34788 1.49946C6.43329 1.58486 6.49337 1.69225 6.52146 1.80971C6.53454 1.86463 6.53846 1.95093 6.53846 2.35366V5.49188C6.53846 5.89462 6.53454 5.98092 6.52015 6.03715C6.49206 6.15461 6.43198 6.262 6.34658 6.3474C6.26117 6.43279 6.15378 6.49287 6.03631 6.52096C5.98269 6.53273 5.89638 6.53796 5.49231 6.53796H2.35385C1.95108 6.53796 1.86477 6.53404 1.80854 6.51965C1.69107 6.49156 1.58368 6.43149 1.49827 6.34609C1.41286 6.26069 1.35278 6.1533 1.32469 6.03584C1.31292 5.98223 1.30769 5.89593 1.30769 5.49188V2.35366C1.30769 1.95093 1.31162 1.86463 1.326 1.8084C1.35409 1.69094 1.41417 1.58355 1.49958 1.49815C1.58498 1.41276 1.69238 1.35268 1.80985 1.32459L1.80854 1.3259ZM11.5077 0H11.4423C11.1428 0 10.8852 9.74232e-09 10.6577 0.0536113C10.3054 0.137774 9.98338 0.317805 9.72718 0.573757C9.47098 0.829709 9.29064 1.15159 9.20615 1.50373C9.15385 1.73125 9.15385 1.98754 9.15385 2.28829V5.55726C9.15385 5.8567 9.15385 6.1143 9.20746 6.34182C9.29163 6.69404 9.47168 7.01608 9.72765 7.27226C9.98362 7.52844 10.3055 7.70877 10.6577 7.79325C10.8852 7.84555 11.1415 7.84555 11.4423 7.84555H14.7115C15.011 7.84555 15.2686 7.84555 15.4962 7.79194C15.8484 7.70778 16.1705 7.52774 16.4267 7.27179C16.6829 7.01584 16.8632 6.69396 16.9477 6.34182C17 6.1143 17 5.85801 17 5.55726V2.28829C17 1.98885 17 1.73125 16.9464 1.50373C16.8622 1.15151 16.6822 0.829471 16.4262 0.573288C16.1702 0.317105 15.8483 0.136784 15.4962 0.0523036C15.2686 -4.87116e-08 15.0123 0 14.7115 0H11.5077ZM10.9624 1.3259C11.0186 1.31282 11.1062 1.30759 11.5077 1.30759H14.6462C15.0489 1.30759 15.1352 1.31151 15.1915 1.3259C15.3089 1.35399 15.4163 1.41406 15.5017 1.49946C15.5871 1.58486 15.6472 1.69225 15.6753 1.80971C15.6884 1.86463 15.6923 1.95093 15.6923 2.35366V5.49188C15.6923 5.89462 15.6871 5.98092 15.674 6.03715C15.6459 6.15461 15.5858 6.262 15.5004 6.3474C15.415 6.43279 15.3076 6.49287 15.1902 6.52096C15.1352 6.53404 15.0489 6.53796 14.6462 6.53796H11.5077C11.1049 6.53796 11.0186 6.53404 10.9624 6.51965C10.8449 6.49156 10.7375 6.43149 10.6521 6.34609C10.5667 6.26069 10.5066 6.1533 10.4785 6.03584C10.4668 5.98223 10.4615 5.89593 10.4615 5.49188V2.35366C10.4615 1.95093 10.4655 1.86463 10.4798 1.8084C10.5079 1.69094 10.568 1.58355 10.6534 1.49815C10.7388 1.41276 10.8462 1.35268 10.9637 1.32459L10.9624 1.3259ZM2.28846 9.15314H5.55769C5.85715 9.15314 6.11477 9.15314 6.34231 9.20675C6.69455 9.29092 7.01662 9.47095 7.27282 9.7269C7.52902 9.98285 7.70936 10.3047 7.79385 10.6569C7.84615 10.8844 7.84615 11.1407 7.84615 11.4414V14.7104C7.84615 15.0098 7.84615 15.2674 7.79254 15.495C7.70837 15.8472 7.52832 16.1692 7.27235 16.4254C7.01638 16.6816 6.69448 16.8619 6.34231 16.9464C6.11477 16.9987 5.85846 16.9987 5.55769 16.9987H2.28846C1.989 16.9987 1.73138 16.9987 1.50385 16.9451C1.1516 16.8609 0.829535 16.6809 0.573332 16.4249C0.31713 16.169 0.136795 15.8471 0.0523076 15.495C-4.87153e-08 15.2674 0 15.0112 0 14.7104V11.4414C0 11.142 9.74307e-09 10.8844 0.0536154 10.6569C0.137785 10.3047 0.31783 9.98261 0.573801 9.72643C0.829773 9.47025 1.15168 9.28993 1.50385 9.20545C1.73138 9.15314 1.98769 9.15314 2.28846 9.15314ZM2.35385 10.4607C1.95108 10.4607 1.86477 10.4647 1.80854 10.479C1.69107 10.5071 1.58368 10.5672 1.49827 10.6526C1.41286 10.738 1.35278 10.8454 1.32469 10.9628C1.31292 11.0165 1.30769 11.1028 1.30769 11.5068V14.645C1.30769 15.0478 1.31162 15.1341 1.326 15.1903C1.35409 15.3078 1.41417 15.4151 1.49958 15.5005C1.58498 15.5859 1.69238 15.646 1.80985 15.6741C1.86477 15.6872 1.95108 15.6911 2.35385 15.6911H5.49231C5.89508 15.6911 5.98138 15.6859 6.03762 15.6728C6.15509 15.6447 6.26248 15.5846 6.34788 15.4992C6.43329 15.4138 6.49337 15.3064 6.52146 15.189C6.53454 15.1341 6.53846 15.0478 6.53846 14.645V11.5068C6.53846 11.1041 6.53454 11.0178 6.52015 10.9615C6.49206 10.8441 6.43198 10.7367 6.34658 10.6513C6.26117 10.5659 6.15378 10.5058 6.03631 10.4777C5.98269 10.466 5.89638 10.4607 5.49231 10.4607H2.35385ZM11.5077 9.15314H11.4423C11.1428 9.15314 10.8852 9.15314 10.6577 9.20675C10.3054 9.29092 9.98338 9.47095 9.72718 9.7269C9.47098 9.98285 9.29064 10.3047 9.20615 10.6569C9.15385 10.8844 9.15385 11.1407 9.15385 11.4414V14.7104C9.15385 15.0098 9.15385 15.2674 9.20746 15.495C9.29163 15.8472 9.47168 16.1692 9.72765 16.4254C9.98362 16.6816 10.3055 16.8619 10.6577 16.9464C10.8852 17 11.1428 17 11.4423 17H14.7115C15.011 17 15.2686 17 15.4962 16.9464C15.8482 16.862 16.1699 16.6819 16.4259 16.4259C16.6819 16.17 16.862 15.8482 16.9464 15.4963C17 15.2687 17 15.0112 17 14.7117V11.4414C17 11.142 17 10.8844 16.9464 10.6569C16.8622 10.3047 16.6822 9.98261 16.4262 9.72643C16.1702 9.47025 15.8483 9.28993 15.4962 9.20545C15.2686 9.15314 15.0123 9.15314 14.7115 9.15314H11.5077ZM10.9624 10.479C11.0186 10.466 11.1062 10.4607 11.5077 10.4607H14.6462C15.0489 10.4607 15.1352 10.4647 15.1915 10.479C15.3089 10.5071 15.4163 10.5672 15.5017 10.6526C15.5871 10.738 15.6472 10.8454 15.6753 10.9628C15.6884 11.0178 15.6923 11.1041 15.6923 11.5068V14.645C15.6923 15.0478 15.6871 15.1341 15.674 15.1903C15.6459 15.3078 15.5858 15.4151 15.5004 15.5005C15.415 15.5859 15.3076 15.646 15.1902 15.6741C15.1352 15.6872 15.0489 15.6911 14.6462 15.6911H11.5077C11.1049 15.6911 11.0186 15.6859 10.9624 15.6728C10.8449 15.6447 10.7375 15.5846 10.6521 15.4992C10.5667 15.4138 10.5066 15.3064 10.4785 15.189C10.4668 15.1354 10.4615 15.0491 10.4615 14.645V11.5068C10.4615 11.1041 10.4655 11.0178 10.4798 10.9615C10.5079 10.8441 10.568 10.7367 10.6534 10.6513C10.7388 10.5659 10.8462 10.5058 10.9637 10.4777L10.9624 10.479Z" fill="#A0A1A7"/>
</svg>
